<svg xmlns="http://www.w3.org/2000/svg" version="1.1" xmlns:xlink="http://www.w3.org/1999/xlink" xmlns:svgjs="http://svgjs.com/svgjs" width="1000" height="1000"><rect width="1000" height="1000" rx="500" ry="500" fill="#ffffff"></rect><g transform="matrix(1.6,0,0,1.6,99.9984390258789,99.56249694824214)"><svg xmlns="http://www.w3.org/2000/svg" version="1.1" xmlns:xlink="http://www.w3.org/1999/xlink" xmlns:svgjs="http://svgjs.com/svgjs" width="500" height="500"><svg xmlns="http://www.w3.org/2000/svg" xmlns:xlink="http://www.w3.org/1999/xlink" width="500" zoomAndPan="magnify" viewBox="0 0 375 374.999991" height="500" preserveAspectRatio="xMidYMid meet" version="1.0"><defs><g></g></defs><path fill="#000000" d="M 74.714844 290.035156 L 300.289062 290.035156 L 300.289062 320.785156 L 74.714844 320.785156 Z M 74.714844 290.035156 " fill-opacity="1" fill-rule="nonzero"></path><path stroke-linecap="butt" transform="matrix(0.75, 0, 0, 0.75, 74.71582, -68.4651)" fill="none" stroke-linejoin="miter" d="M 292.785175 445.28683 L 275.675799 445.28683 L 191.050794 170.427437 C 189.826835 166.656603 187.27996 165.031603 183.920585 165.031603 L 92.571621 165.031603 C 89.717454 165.031603 87.175787 167.474311 87.175787 170.833687 C 87.175787 174.193062 89.717454 176.640979 92.571621 176.640979 L 116.811205 176.640979 L 30.040366 445.28683 L 6.722657 445.28683 C 3.769531 445.28683 1.222656 448.239955 1.222656 451.19308 C 1.222656 454.453497 3.769531 457.000372 6.722657 457.000372 L 70.878911 457.000372 C 73.832036 457.000372 76.378911 454.453497 76.378911 451.19308 C 76.378911 448.239955 73.832036 445.28683 70.878911 445.28683 L 42.977867 445.28683 L 65.889327 374.406617 L 186.87371 374.406617 L 208.97267 445.28683 L 185.649752 445.28683 C 182.696626 445.28683 180.149751 448.239955 180.149751 451.19308 C 180.149751 454.453497 182.696626 457.000372 185.649752 457.000372 L 292.785175 457.000372 C 295.738301 457.000372 298.285176 454.453497 298.285176 451.19308 C 298.285176 448.239955 295.738301 445.28683 292.785175 445.28683 Z M 221.904962 445.28683 L 139.316415 176.640979 L 180.149751 176.640979 L 262.743507 445.28683 Z M 183.514335 362.698283 L 69.654952 362.698283 L 128.009123 182.953479 Z M 183.514335 362.698283 " stroke="#000000" stroke-width="11.731837" stroke-opacity="1" stroke-miterlimit="4"></path><g fill="#000000" fill-opacity="1"><g transform="translate(137.412125, 271.528767)"><g><path d="M 28.859375 -43.917969 L 13.113281 -43.917969 C 12.609375 -43.917969 12.234375 -43.542969 12.234375 -43.039062 C 12.234375 -42.539062 12.609375 -42.160156 13.113281 -42.160156 L 16.125 -42.160156 L 16.125 -1.378906 C 15.183594 -1.066406 14.117188 -0.941406 13.050781 -0.941406 C 7.277344 -0.941406 2.507812 -5.394531 2.070312 -11.105469 C 2.007812 -11.605469 1.632812 -11.984375 1.128906 -11.984375 L 1.066406 -11.984375 C 0.628906 -11.984375 0.1875 -11.605469 0.1875 -11.105469 L 0.1875 -10.980469 C 0.691406 -4.265625 6.210938 0.941406 13.050781 0.941406 C 20.203125 0.941406 25.910156 -4.957031 25.910156 -12.234375 L 25.910156 -42.160156 L 28.859375 -42.160156 C 29.363281 -42.160156 29.738281 -42.539062 29.738281 -43.039062 C 29.738281 -43.542969 29.363281 -43.917969 28.859375 -43.917969 Z M 24.03125 -42.160156 L 24.03125 -12.234375 C 24.03125 -7.84375 21.582031 -4.015625 18.007812 -2.132812 L 18.007812 -42.160156 Z M 24.03125 -42.160156 "></path></g></g></g><g fill="#000000" fill-opacity="1"><g transform="translate(162.321351, 271.528767)"><g><path d="M 40.214844 -1.757812 L 37.394531 -1.757812 L 37.394531 -12.421875 C 37.394531 -16.4375 34.757812 -19.824219 31.183594 -21.082031 C 35.007812 -23.089844 37.644531 -27.105469 37.644531 -31.871094 C 37.644531 -39.652344 32.5 -43.917969 25.285156 -43.917969 L 4.707031 -43.917969 C 4.140625 -43.917969 3.828125 -43.667969 3.828125 -43.164062 C 3.828125 -42.601562 4.140625 -42.222656 4.707031 -42.222656 L 7.65625 -42.222656 L 7.65625 -1.757812 L 4.328125 -1.757812 C 3.828125 -1.757812 3.449219 -1.378906 3.449219 -0.878906 C 3.449219 -0.375 3.828125 0 4.328125 0 L 19.386719 0 C 19.953125 0 20.265625 -0.375 20.265625 -0.878906 C 20.265625 -1.378906 19.953125 -1.757812 19.386719 -1.757812 L 17.441406 -1.757812 L 17.441406 -19.824219 L 27.355469 -19.824219 L 27.355469 -0.941406 C 27.355469 -0.375 27.730469 0 28.296875 0 L 40.214844 0 C 40.71875 0 41.15625 -0.3125 41.15625 -0.878906 C 41.15625 -1.378906 40.71875 -1.757812 40.214844 -1.757812 Z M 15.558594 -1.757812 L 9.535156 -1.757812 L 9.535156 -42.222656 L 15.558594 -42.222656 Z M 25.847656 -21.582031 L 17.441406 -21.582031 L 17.441406 -42.222656 L 25.285156 -42.222656 C 25.972656 -42.222656 26.664062 -42.160156 27.355469 -42.097656 L 27.355469 -21.707031 C 26.851562 -21.644531 26.351562 -21.582031 25.847656 -21.582031 Z M 35.761719 -31.871094 C 35.761719 -27.417969 33.0625 -23.652344 29.238281 -22.210938 L 29.238281 -41.660156 C 33.253906 -40.40625 35.761719 -37.078125 35.761719 -31.871094 Z M 29.238281 -1.757812 L 29.238281 -19.761719 C 32.75 -19.261719 35.511719 -16.0625 35.511719 -12.421875 L 35.511719 -1.757812 Z M 29.238281 -1.757812 "></path></g></g></g></svg></svg></g></svg>